<svg width="280" height="54" viewBox="0 0 280 54" fill="none" xmlns="http://www.w3.org/2000/svg">
    <path d="M44.8881 0.758879C37.78 1.16406 37.0146 7.32173 31.1771 7.32173C25.3396 7.32173 24.5692 1.16406 17.4611 0.758879C11.6586 0.428736 6.96658 4.23539 6.24127 4.84565C5.72104 5.28585 5.22582 5.74605 4.76562 6.23626C5.22582 6.11621 5.68603 6.04117 6.13122 6.02617C12.9742 5.77606 18.4666 9.11751 21.3578 12.1238C23.939 13.8296 26.345 16.0755 31.1721 16.0755C36.9096 15.8654 40.2711 12.7491 43.1573 10.9183C45.4483 9.46266 49.4951 10.7232 50.4805 11.5486C50.8006 11.8137 51.0958 12.1038 51.3709 12.4089C51.551 12.2139 51.731 12.0188 51.9061 11.8187C52.1312 11.5586 52.3513 11.2935 52.5664 11.0183C54.052 9.12251 55.2176 6.95657 55.8678 4.64557C54.6423 3.66514 50.2354 0.453747 44.8881 0.758879Z" fill="url(#paint0_linear_3437_5870)"/>
    <path d="M58.6485 14.4348C57.7681 16.1955 56.4276 17.4611 55.5772 18.2364C54.9219 18.8367 54.2916 19.4269 53.5763 19.9622C53.5763 19.9622 53.1311 20.2973 53.0761 20.3373C52.2657 20.9276 51.6155 21.3528 50.7401 21.843C49.0293 22.8084 47.0935 23.3136 45.5778 24.5592C44.0822 25.7947 42.6166 27.0352 40.8708 27.9356C39.8253 28.4759 34.8032 30.1066 34.7531 29.5213C34.9682 29.4213 35.1833 29.3162 35.4034 29.2162C35.7386 29.0611 35.9887 28.9461 36.0687 28.911C36.4039 28.761 36.9741 28.5009 38.0096 28.0207C35.9887 28.716 35.1033 29.0161 34.7281 29.1411H34.7081C34.5931 29.1862 34.1379 29.3312 33.5426 29.4663C32.9974 29.5863 32.5172 29.6514 31.9619 29.6364C31.6768 29.6314 31.3417 29.4163 31.3216 29.2912C31.2166 28.701 37.7745 27.0602 37.7644 27.0252C37.7544 26.9802 33.7977 28.0007 33.7977 28.0007C32.6622 28.2908 30.9665 28.731 29.841 29.0211L27.42 29.2612C27.3249 29.2762 27.2299 29.2812 27.1448 29.2762C26.4895 29.2562 26.1444 28.4859 26.7647 28.2758C30.4563 27.3504 34.7882 26.2499 34.7681 26.1498C34.7381 26.0198 27.3899 27.6505 27.0748 27.2503C27.0148 27.1503 26.8897 27.0252 27.2649 26.7751C29.1707 25.5046 31.3617 25.8647 33.0174 24.159C33.3025 23.9739 34.9082 22.5233 35.4084 21.958C35.6135 21.7279 35.8336 21.3228 35.6435 21.0326C35.4685 20.7675 35.1433 20.7725 34.8582 20.8025C34.5581 20.8325 33.3525 21.2727 33.0824 21.4128C32.7973 21.5529 31.8069 22.1781 31.5467 22.2131C31.2866 22.2482 30.8765 22.4132 30.7464 22.0731C30.6364 21.783 30.9415 21.5679 31.1166 21.3828C31.2916 21.1977 31.4617 20.9926 31.6468 20.8175C32.4721 20.0472 33.5076 19.4369 34.6281 18.9467C35.0032 18.7817 35.3884 18.6316 35.7736 18.4965C37.3193 17.9213 38.935 17.7662 40.5757 17.7212C41.6661 17.6912 42.8116 17.9413 43.8871 17.8763C44.8725 17.8162 45.863 16.9659 46.6733 16.4406C48.3941 15.3151 49.0594 14.935 51.2703 12.5289C51.2703 12.5289 51.5054 12.2738 51.5604 12.2088C51.6755 12.0837 51.7905 11.9537 51.9056 11.8186C52.1307 11.5585 52.3508 11.2934 52.5659 11.0183C54.0515 9.12245 55.217 6.95651 55.8673 4.64551C55.9674 4.72554 56.0424 4.79057 56.0974 4.83559C56.0974 4.83559 56.0974 4.83559 56.1074 4.84559C58.0883 6.82646 59.689 12.3589 58.6485 14.4348Z" fill="url(#paint1_linear_3437_5870)"/>
    <path d="M34.1982 52.6965C33.0377 53.1116 32.0122 53.2617 31.0368 53.2617C30.9268 53.2617 30.8167 53.2617 30.7067 53.2567H30.6266C27.8304 53.1066 24.9842 51.701 21.4026 48.6947C19.2517 46.8889 16.7556 44.4279 13.9894 41.3815C11.8485 39.0255 8.40198 35.0588 4.13513 29.5314C4.09011 29.4764 4.05509 29.4263 4.03008 29.3913C1.06879 25.8248 -0.336819 21.3228 0.0683572 16.7008C0.218422 14.9801 0.613594 13.3143 1.23887 11.7487C2.04922 9.71278 3.23974 7.84696 4.7654 6.23626C5.2256 6.11621 5.6858 6.04118 6.13099 6.02617C12.974 5.77606 18.4664 9.11752 21.3576 12.1238C20.6673 11.6686 19.957 11.2484 19.1917 10.9183C17.2658 10.0979 13.9444 10.213 11.8685 11.5486C10.5829 12.3739 9.8276 13.7695 9.30737 15.1601C9.03726 15.8905 8.86218 16.6658 8.79215 17.4611C8.72712 18.2165 8.75213 18.9518 8.86718 19.6671C8.85718 19.7521 8.85217 19.8422 8.84217 19.9272C8.58706 23.0236 9.11729 26.4651 10.3228 31.0871C11.4333 35.3589 13.3241 38.8404 16.4505 42.342C17.2958 43.2874 19.3417 45.8835 22.4331 48.2395C25.4294 50.5255 29.4011 52.5864 34.2032 52.6965H34.1982Z" fill="url(#paint2_linear_3437_5870)"/>
    <path d="M52.8321 33.9682C50.9563 37.4697 49.4557 39.2205 47.2047 41.9717C42.7878 47.369 39.1412 50.0752 36.48 51.6159C35.6597 52.0911 34.9044 52.4462 34.199 52.6963C29.397 52.5863 25.4252 50.5304 22.4289 48.2444C19.3426 45.8834 17.2917 43.2923 16.4463 42.3418C13.32 38.8403 11.4342 35.3588 10.3187 31.087C9.11314 26.4649 8.58291 23.0235 8.83802 19.9271C8.84803 19.8421 8.85303 19.752 8.86303 19.667C9.10814 21.1676 9.74842 22.5633 10.7639 23.7838C10.7639 23.7838 20.373 37.1396 22.509 39.2755C26.1606 42.9271 29.2969 44.0876 32.0031 43.8725C32.0731 43.8725 32.1432 43.8625 32.2132 43.8525C32.2632 43.8475 32.3132 43.8425 32.3632 43.8375C32.4033 43.8325 32.4483 43.8275 32.4883 43.8225C32.5133 43.8225 32.5383 43.8175 32.5633 43.8125C32.6134 43.8075 32.6584 43.7975 32.7084 43.7875C32.7684 43.7775 32.8234 43.7675 32.8835 43.7575C34.119 43.5174 35.2645 42.9971 36.325 42.3168C36.425 42.2518 36.5251 42.1868 36.6251 42.1218C36.8002 42.0017 36.9753 41.8766 37.1503 41.7466C37.1703 41.7316 37.1903 41.7166 37.2104 41.7016C37.2354 41.6816 37.2604 41.6666 37.2804 41.6465C37.3354 41.6065 37.3904 41.5615 37.4455 41.5215C38.1258 41.0013 38.796 40.426 39.3713 39.8007H39.3763C40.0916 39.0854 40.7619 38.3501 41.3822 37.6498C42.0725 37.3597 42.9779 37.4797 43.348 38.12C43.5281 38.4301 43.5681 38.8303 43.8282 39.0804C44.2434 39.4756 44.9187 39.2555 45.4239 38.9904C47.9 37.6848 50.0109 35.684 51.4515 33.2829C51.6766 32.9077 51.9818 32.4676 52.417 32.5026C52.612 32.5176 52.7821 32.6376 52.8922 32.7977C52.9672 32.9077 53.0222 33.0328 53.0422 33.1629C53.0973 33.488 52.9672 33.6831 52.8121 33.9732L52.8321 33.9682Z" fill="url(#paint3_linear_3437_5870)"/>
    <path d="M49.3904 33.213C49.838 33.213 50.2008 32.8502 50.2008 32.4026C50.2008 31.9551 49.838 31.5923 49.3904 31.5923C48.9429 31.5923 48.5801 31.9551 48.5801 32.4026C48.5801 32.8502 48.9429 33.213 49.3904 33.213Z" fill="url(#paint4_linear_3437_5870)"/>
    <path d="M55.3924 35.9642C55.8399 35.9642 56.2027 35.6014 56.2027 35.1539C56.2027 34.7063 55.8399 34.3435 55.3924 34.3435C54.9448 34.3435 54.582 34.7063 54.582 35.1539C54.582 35.6014 54.9448 35.9642 55.3924 35.9642Z" fill="url(#paint5_linear_3437_5870)"/>
    <path d="M52.5156 40.091C53.1703 40.091 53.7011 39.5602 53.7011 38.9055C53.7011 38.2507 53.1703 37.72 52.5156 37.72C51.8608 37.72 51.3301 38.2507 51.3301 38.9055C51.3301 39.5602 51.8608 40.091 52.5156 40.091Z" fill="url(#paint6_linear_3437_5870)"/>
    <path d="M46.1386 37.2148C46.7934 37.2148 47.3242 36.684 47.3242 36.0293C47.3242 35.3745 46.7934 34.8438 46.1386 34.8438C45.4839 34.8438 44.9531 35.3745 44.9531 36.0293C44.9531 36.684 45.4839 37.2148 46.1386 37.2148Z" fill="url(#paint7_linear_3437_5870)"/>
    <path d="M55.3929 30.3417C56.462 30.3417 57.3287 29.4749 57.3287 28.4058C57.3287 27.3367 56.462 26.47 55.3929 26.47C54.3237 26.47 53.457 27.3367 53.457 28.4058C53.457 29.4749 54.3237 30.3417 55.3929 30.3417Z" fill="url(#paint8_linear_3437_5870)"/>
    <path d="M72.8301 24.6543C72.8301 14.4449 77.187 10.9133 83.5647 10.9133C89.9425 10.9133 93.8492 15.1152 93.8492 22.3983H89.1572C89.1572 18.6467 87.9917 15.6054 83.5647 15.6054C79.1378 15.6054 77.5221 18.0814 77.5221 24.6493C77.5221 31.2172 79.0978 33.6982 83.5647 33.6982C87.4664 33.6982 89.1572 31.4473 91.2231 28.7811L93.9242 32.9479C90.7729 36.9997 87.6565 38.3903 83.5647 38.3903C77.182 38.3903 72.8301 34.8637 72.8301 24.6493V24.6543Z" fill="#F7F5F5"/>
    <path d="M95.4648 27.0205V26.9804C95.4648 18.7969 99.0314 15.6455 104.889 15.6455C110.746 15.6455 114.273 18.7969 114.273 27.0205C114.273 35.244 110.746 38.3554 104.889 38.3554C99.0314 38.3554 95.4648 35.204 95.4648 27.0205ZM104.889 33.6633C108.04 33.6633 109.581 32.7229 109.581 26.9804C109.581 21.2379 108.04 20.3375 104.889 20.3375C101.738 20.3375 100.157 21.2379 100.157 26.9804C100.157 32.7229 101.733 33.6633 104.889 33.6633Z" fill="#F7F5F5"/>
    <path d="M116.523 26.9804C116.523 19.097 120.315 15.6455 125.948 15.6455C131.955 15.6455 135.071 19.8473 135.071 23.714C135.071 27.0555 132.931 29.4965 127.188 29.4965H121.371C121.861 32.6479 123.396 33.6633 125.953 33.6633C128.128 33.6633 129.779 33.1381 132.635 31.7475L135.302 35.7993C130.835 37.9002 128.809 38.3504 125.953 38.3504C120.47 38.3504 116.528 34.9739 116.528 27.0154V26.9754L116.523 26.9804ZM130.189 23.4539C130.189 21.388 128.199 20.3375 125.948 20.3375C123.281 20.3375 121.746 21.353 121.331 24.8045H128.689C129.889 24.8045 130.189 24.1292 130.189 23.4539Z" fill="#F7F5F5"/>
    <path d="M137.543 28.5961V16.2107H142.235V28.5611C142.235 32.0526 143.811 33.103 146.702 33.103H151.659V16.2107H156.351V37.7951H146.702C141.935 37.7951 137.543 35.354 137.543 28.5961Z" fill="#F7F5F5"/>
    <path d="M159.354 16.2107L161.795 18.3516C163.37 16.851 165.696 16.2107 168.512 16.2107H171.929V20.9027H168.512C165.621 20.9027 164.046 21.2429 164.046 25.4447V37.7951H159.354V16.2107Z" fill="#F7F5F5"/>
    <path d="M181.502 26.9804C181.502 19.4372 184.953 15.6455 190.476 15.6455C196.483 15.6455 199.185 19.8123 199.185 23.5289C199.185 26.6803 197.084 29.0863 192.467 29.0863H185.449C185.899 33.1381 187.74 34.5287 190.481 34.5287C192.657 34.5287 194.348 33.9284 197.199 32.4628L199.375 35.7642C195.098 37.8301 193.332 38.3554 190.476 38.3554C185.184 38.3554 181.502 34.7138 181.502 27.0205V26.9804ZM195.278 23.4139C195.278 20.5626 192.727 19.4722 190.471 19.4722C187.655 19.4722 185.779 20.8628 185.404 25.2547H193.212C194.863 25.2547 195.278 24.2793 195.278 23.4139Z" fill="#FF0303"/>
    <path d="M209.469 19.472C207.143 19.472 205.492 20.2974 205.492 22.3983C205.492 25.9248 218.443 24.3892 218.443 31.7824C218.443 35.534 215.326 38.3503 209.774 38.3503C206.623 38.3503 203.881 37.3348 200.5 35.499L202.601 32.2326C206.017 33.9583 207.743 34.5236 209.769 34.5236C211.61 34.5236 214.421 34.0334 214.421 31.6723C214.421 27.6956 201.62 30.0216 201.62 22.3983C201.62 18.4566 204.737 15.6404 209.464 15.6404C214.571 15.6404 218.323 18.4566 216.932 24.3892H213.105C214.271 20.7476 212.58 19.472 209.464 19.472H209.469Z" fill="#FF0303"/>
    <path d="M223.054 18.7618C224.595 17.0711 226.806 16.2107 229.662 16.2107C235.555 16.2107 238.636 19.7372 238.636 27.0204C238.636 34.3036 235.56 37.7951 229.662 37.7951C227.596 37.7951 225.871 37.3449 224.52 36.4795V44.1728H220.693V16.2107L223.059 18.7618H223.054ZM229.662 33.9634C232.814 33.9634 234.804 32.913 234.804 27.0204C234.804 21.1278 232.779 20.0374 229.662 20.0374C226.546 20.0374 224.52 21.0878 224.52 26.9804C224.52 32.8729 226.511 33.9634 229.662 33.9634Z" fill="#FF0303"/>
    <path d="M240.889 27.0205V26.9804C240.889 18.987 244.005 15.6455 249.863 15.6455C255.72 15.6455 258.836 18.987 258.836 26.9804V27.0205C258.836 35.0139 255.72 38.3554 249.863 38.3554C244.005 38.3554 240.889 35.0139 240.889 27.0205ZM249.863 34.5287C253.014 34.5287 255.005 33.5533 255.005 27.0205C255.005 20.4876 253.014 19.4772 249.863 19.4772C246.711 19.4772 244.72 20.4526 244.72 26.9854C244.72 33.5183 246.711 34.5287 249.863 34.5287Z" fill="#FF0303"/>
    <path d="M261.457 9.82788H265.284V13.5795H261.457V9.82788ZM261.457 16.2107H265.284V37.795H261.457V16.2107Z" fill="#FF0303"/>
    <path d="M268.289 16.2107L270.39 18.4617C271.891 16.886 274.107 16.2107 276.998 16.2107H279.999V20.0374H276.998C274.107 20.0374 272.121 20.3375 272.121 25.4447V37.7951H268.294V16.2107H268.289Z" fill="#FF0303"/>
    <defs>
        <linearGradient id="paint0_linear_3437_5870" x1="22.6334" y1="-6.00406" x2="48.8298" y2="33.0229" gradientUnits="userSpaceOnUse">
            <stop stop-color="#FF0303"/>
            <stop offset="0.1" stop-color="#F60505"/>
            <stop offset="0.25" stop-color="#DF0A0C"/>
            <stop offset="0.45" stop-color="#BA1417"/>
            <stop offset="0.67" stop-color="#852126"/>
            <stop offset="0.92" stop-color="#443239"/>
            <stop offset="1" stop-color="#2E3840"/>
        </linearGradient>
        <linearGradient id="paint1_linear_3437_5870" x1="59.9891" y1="4.28535" x2="26.6346" y2="35.3439" gradientUnits="userSpaceOnUse">
            <stop stop-color="#F9DBBB"/>
            <stop offset="0.04" stop-color="#FAAF95"/>
            <stop offset="0.1" stop-color="#FB7E6B"/>
            <stop offset="0.16" stop-color="#FC5548"/>
            <stop offset="0.21" stop-color="#FD352D"/>
            <stop offset="0.27" stop-color="#FE1E19"/>
            <stop offset="0.32" stop-color="#FE100E"/>
            <stop offset="0.36" stop-color="#FF0C0A"/>
            <stop offset="0.49" stop-color="#FD2F28"/>
            <stop offset="0.76" stop-color="#FB8975"/>
            <stop offset="1" stop-color="#F9DBBB"/>
        </linearGradient>
        <linearGradient id="paint2_linear_3437_5870" x1="17.1008" y1="16.7558" x2="17.1008" y2="-0.0214557" gradientUnits="userSpaceOnUse">
            <stop stop-color="#FF0303"/>
            <stop offset="0.1" stop-color="#F60505"/>
            <stop offset="0.25" stop-color="#DF0A0C"/>
            <stop offset="0.45" stop-color="#BA1417"/>
            <stop offset="0.67" stop-color="#852126"/>
            <stop offset="0.92" stop-color="#443239"/>
            <stop offset="1" stop-color="#2E3840"/>
        </linearGradient>
        <linearGradient id="paint3_linear_3437_5870" x1="60.6555" y1="36.1842" x2="-11.4508" y2="36.1842" gradientUnits="userSpaceOnUse">
            <stop stop-color="#F9DBBB"/>
            <stop offset="0.04" stop-color="#FAAF95"/>
            <stop offset="0.1" stop-color="#FB7E6B"/>
            <stop offset="0.16" stop-color="#FC5548"/>
            <stop offset="0.21" stop-color="#FD352D"/>
            <stop offset="0.27" stop-color="#FE1E19"/>
            <stop offset="0.32" stop-color="#FE100E"/>
            <stop offset="0.36" stop-color="#FF0C0A"/>
            <stop offset="0.48" stop-color="#DB1313"/>
            <stop offset="0.76" stop-color="#81262A"/>
            <stop offset="1" stop-color="#2E3840"/>
        </linearGradient>
        <linearGradient id="paint4_linear_3437_5870" x1="48.7201" y1="31.7323" x2="50.0957" y2="33.1079" gradientUnits="userSpaceOnUse">
            <stop stop-color="#F9DBBB"/>
            <stop offset="0.04" stop-color="#FAAF95"/>
            <stop offset="0.1" stop-color="#FB7E6B"/>
            <stop offset="0.16" stop-color="#FC5548"/>
            <stop offset="0.21" stop-color="#FD352D"/>
            <stop offset="0.27" stop-color="#FE1E19"/>
            <stop offset="0.32" stop-color="#FE100E"/>
            <stop offset="0.36" stop-color="#FF0C0A"/>
            <stop offset="0.48" stop-color="#DB1313"/>
            <stop offset="0.76" stop-color="#81262A"/>
            <stop offset="1" stop-color="#2E3840"/>
        </linearGradient>
        <linearGradient id="paint5_linear_3437_5870" x1="56.1177" y1="35.8792" x2="54.502" y2="34.2635" gradientUnits="userSpaceOnUse">
            <stop stop-color="#F9DBBB"/>
            <stop offset="0.04" stop-color="#FAAF95"/>
            <stop offset="0.1" stop-color="#FB7E6B"/>
            <stop offset="0.16" stop-color="#FC5548"/>
            <stop offset="0.21" stop-color="#FD352D"/>
            <stop offset="0.27" stop-color="#FE1E19"/>
            <stop offset="0.32" stop-color="#FE100E"/>
            <stop offset="0.36" stop-color="#FF0C0A"/>
            <stop offset="0.48" stop-color="#DB1313"/>
            <stop offset="0.76" stop-color="#81262A"/>
            <stop offset="1" stop-color="#2E3840"/>
        </linearGradient>
        <linearGradient id="paint6_linear_3437_5870" x1="53.2109" y1="40.111" x2="51.7903" y2="37.6449" gradientUnits="userSpaceOnUse">
            <stop stop-color="#F9DBBB"/>
            <stop offset="0.04" stop-color="#FAAF95"/>
            <stop offset="0.1" stop-color="#FB7E6B"/>
            <stop offset="0.16" stop-color="#FC5548"/>
            <stop offset="0.21" stop-color="#FD352D"/>
            <stop offset="0.27" stop-color="#FE1E19"/>
            <stop offset="0.32" stop-color="#FE100E"/>
            <stop offset="0.36" stop-color="#FF0C0A"/>
            <stop offset="0.48" stop-color="#DB1313"/>
            <stop offset="0.76" stop-color="#81262A"/>
            <stop offset="1" stop-color="#2E3840"/>
        </linearGradient>
        <linearGradient id="paint7_linear_3437_5870" x1="45.1582" y1="37.0147" x2="47.1691" y2="35.0038" gradientUnits="userSpaceOnUse">
            <stop stop-color="#F9DBBB"/>
            <stop offset="0.04" stop-color="#FAAF95"/>
            <stop offset="0.1" stop-color="#FB7E6B"/>
            <stop offset="0.16" stop-color="#FC5548"/>
            <stop offset="0.21" stop-color="#FD352D"/>
            <stop offset="0.27" stop-color="#FE1E19"/>
            <stop offset="0.32" stop-color="#FE100E"/>
            <stop offset="0.36" stop-color="#FF0C0A"/>
            <stop offset="0.48" stop-color="#DB1313"/>
            <stop offset="0.76" stop-color="#81262A"/>
            <stop offset="1" stop-color="#2E3840"/>
        </linearGradient>
        <linearGradient id="paint8_linear_3437_5870" x1="57.0536" y1="26.8601" x2="53.6571" y2="30.0215" gradientUnits="userSpaceOnUse">
            <stop stop-color="#F9DBBB"/>
            <stop offset="0.04" stop-color="#FAAF95"/>
            <stop offset="0.1" stop-color="#FB7E6B"/>
            <stop offset="0.16" stop-color="#FC5548"/>
            <stop offset="0.21" stop-color="#FD352D"/>
            <stop offset="0.27" stop-color="#FE1E19"/>
            <stop offset="0.32" stop-color="#FE100E"/>
            <stop offset="0.36" stop-color="#FF0C0A"/>
            <stop offset="0.48" stop-color="#DB1313"/>
            <stop offset="0.76" stop-color="#81262A"/>
            <stop offset="1" stop-color="#2E3840"/>
        </linearGradient>
    </defs>
</svg>
