<svg width="177" height="192" viewBox="0 0 177 192" fill="none" xmlns="http://www.w3.org/2000/svg">
    <path fill-rule="evenodd" clip-rule="evenodd" d="M30.1567 78.5C15.5841 55.3334 0.732354 29.6536 0 0H25.9046C30.3747 16.7575 38.7928 40.6042 53.6568 73C74.1075 117.572 73.3338 160.712 66.7122 192H41.9876C55.0922 164.7 62.7576 130.327 30.1567 78.5Z" fill="#FF0303"/>
    <path fill-rule="evenodd" clip-rule="evenodd" d="M35.8415 79C21.1871 55.7033 6.25035 29.8651 5.67383 0H31.4567C35.892 16.782 44.3292 40.7807 59.3416 73.5C79.6836 117.835 79.0263 160.753 72.5021 192H47.9115C60.869 164.781 68.2437 130.511 35.8415 79Z" fill="#2E3840" fill-opacity="0.5"/>
    <path fill-rule="evenodd" clip-rule="evenodd" d="M176.657 0H13.4329C11.9374 27.4658 21.5083 49.7127 35.8422 72.5C68.4971 124.413 58.4872 162.309 43.8071 192H176.657V0Z" fill="#2E3840"/>
</svg>
